<svg width="209" height="156" xmlns="http://www.w3.org/2000/svg" xmlns:xlink="http://www.w3.org/1999/xlink" xml:space="preserve" overflow="hidden"><g transform="translate(-56 0)"><g><path d="M86.775 84.7438 86.775 71.2969 90.1063 71.2969 90.1063 73.4906C90.6141 72.6984 91.3656 72.0484 92.2188 71.6625 93.2344 71.175 94.3516 70.9516 95.4891 70.9516 98.2313 70.9516 99.8766 71.9062 100.445 73.8156 100.669 74.5266 100.77 75.5016 100.77 76.7609L100.77 84.7234 97.3984 84.7234 97.3984 77.5938C97.3984 76.5172 97.2766 75.7453 97.0125 75.3187 96.6063 74.5062 95.6922 74.1 94.3109 74.1 93.4984 74.1 92.6859 74.3031 91.9344 74.6688 91.2234 74.9734 90.6141 75.4813 90.1875 76.1312L90.1875 84.7438 86.775 84.7438Z" fill="#06041F" fill-rule="nonzero" fill-opacity="1" transform="matrix(1.00481 0 0 1 56 0)"/><path d="M115.639 85.1703C113.953 85.1703 112.938 84.6016 112.552 83.4437 111.516 84.6828 109.891 85.3125 107.656 85.3125 105.95 85.3125 104.609 84.9266 103.675 84.1547 102.761 83.4234 102.233 82.3063 102.273 81.1281 102.273 79.1578 103.289 77.8781 105.3 77.2891 106.58 76.9234 108.184 76.7406 110.094 76.7406 110.764 76.7406 111.414 76.8016 112.064 76.9031L112.064 76.4766C112.084 75.9078 111.881 75.3391 111.516 74.9125 111.028 74.4047 110.114 74.1609 108.753 74.1609 106.62 74.1609 104.873 74.6891 103.492 75.7656L103.391 75.7656 103.391 72.7188C105.036 71.6625 107.067 71.1141 109.484 71.1141 111.434 71.1141 112.897 71.4797 113.872 72.2313 114.4 72.6375 114.806 73.1656 115.05 73.7953 115.294 74.425 115.416 75.2578 115.416 76.3344 115.416 76.6594 115.416 77.2484 115.395 78.0812 115.395 78.9141 115.375 79.5031 115.375 79.8484 115.375 80.8438 115.416 81.4328 115.517 81.6359 115.659 82.0219 116.025 82.2047 116.594 82.2047 116.959 82.2047 117.325 82.1641 117.67 82.0422L117.67 84.8047C117.203 85.0484 116.512 85.1703 115.639 85.1703ZM112.084 79.3812C111.434 79.2797 110.784 79.2391 110.134 79.2391 109.18 79.2188 108.245 79.3 107.331 79.5031 106.275 79.7469 105.727 80.2547 105.727 81.0672 105.727 82.1437 106.6 82.6922 108.367 82.6922 110.033 82.6922 111.272 82.2047 112.105 81.2094 112.084 80.8641 112.084 80.2547 112.084 79.3812Z" fill="#06041F" fill-rule="nonzero" fill-opacity="1" transform="matrix(1.00481 0 0 1 56 0)"/><path d="M119.783 85.8406 119.884 85.8406C121.448 86.9984 123.459 87.5672 125.897 87.5672 127.786 87.5672 129.147 87.1406 129.939 86.2875 130.488 85.7188 130.752 84.7844 130.752 83.4641L130.752 82.4688C130.366 83.0984 129.716 83.6266 128.781 84.0734 127.766 84.5203 126.689 84.7438 125.572 84.7234 123.419 84.7234 121.672 84.175 120.291 83.0781 118.909 81.9813 118.219 80.3766 118.219 78.2641 118.198 77.1266 118.422 75.9891 118.909 74.9531 119.316 74.0594 119.945 73.2875 120.758 72.6984 121.489 72.1703 122.322 71.7641 123.175 71.5 124.028 71.2359 124.902 71.1141 125.795 71.1141 126.872 71.0938 127.928 71.2969 128.944 71.6828 129.878 72.0687 130.508 72.5359 130.812 73.125L130.812 71.5 134.062 71.5 134.062 83.3016C134.062 85.2109 133.717 86.6937 133.006 87.75 131.747 89.5984 129.37 90.5328 125.917 90.5328 124.698 90.5531 123.48 90.4109 122.302 90.1266 121.225 89.8625 120.392 89.5172 119.803 89.1312L119.783 85.8406ZM130.65 76.0906C130.305 75.4203 129.716 74.8719 129.005 74.5672 128.192 74.2016 127.298 74.0187 126.384 74.0187 125.186 73.9781 124.028 74.3438 123.053 75.0547 122.139 75.7453 121.672 76.7812 121.672 78.1625 121.672 79.3609 122.119 80.2547 123.033 80.8641 124.008 81.4938 125.166 81.8187 126.323 81.7984 127.217 81.7984 128.111 81.6156 128.923 81.25 129.634 80.9656 130.223 80.4578 130.63 79.7875L130.65 76.0906Z" fill="#06041F" fill-rule="nonzero" fill-opacity="1" transform="matrix(1.00481 0 0 1 56 0)"/><path d="M148.931 85.1703C147.245 85.1703 146.23 84.6016 145.844 83.4437 144.828 84.6828 143.203 85.3125 140.969 85.3125 139.262 85.3125 137.922 84.9266 136.988 84.1547 136.073 83.4234 135.545 82.3063 135.586 81.1281 135.586 79.1578 136.602 77.8781 138.613 77.2891 139.892 76.9234 141.497 76.7406 143.406 76.7406 144.077 76.7406 144.727 76.8016 145.377 76.9031L145.377 76.4766C145.397 75.9078 145.214 75.3391 144.828 74.9125 144.341 74.4047 143.427 74.1609 142.066 74.1609 139.933 74.1609 138.186 74.6891 136.825 75.7656L136.703 75.7656 136.703 72.7188C138.348 71.6625 140.38 71.1141 142.797 71.1141 144.747 71.1141 146.209 71.4797 147.184 72.2313 147.713 72.6375 148.119 73.1656 148.363 73.7953 148.606 74.425 148.728 75.2578 148.728 76.3344 148.728 76.6594 148.728 77.2484 148.708 78.0812 148.688 78.9141 148.688 79.5031 148.688 79.8484 148.688 80.8438 148.728 81.4328 148.83 81.6359 148.972 82.0219 149.338 82.2047 149.906 82.2047 150.272 82.2047 150.637 82.1641 150.983 82.0422L150.983 84.8047C150.495 85.0484 149.805 85.1703 148.931 85.1703ZM145.377 79.3812C144.727 79.2797 144.077 79.2391 143.427 79.2391 142.472 79.2188 141.537 79.3 140.623 79.5031 139.567 79.7469 139.019 80.2547 139.019 81.0672 139.019 82.1437 139.892 82.6922 141.659 82.6922 143.325 82.6922 144.564 82.2047 145.397 81.2094 145.377 80.8641 145.377 80.2547 145.377 79.3812Z" fill="#06041F" fill-rule="nonzero" fill-opacity="1" transform="matrix(1.00481 0 0 1 56 0)"/><path d="M152.486 84.9469 152.486 71.5 155.817 71.5 155.817 73.775C156.061 73.1047 156.589 72.4953 157.361 71.9672 158.194 71.3984 159.189 71.1141 160.205 71.1547 160.997 71.1547 161.606 71.2766 162.053 71.5406L162.053 74.9125 161.952 74.9125C161.302 74.6281 160.611 74.4859 159.9 74.5062 159.006 74.4859 158.133 74.6484 157.32 75.0344 156.691 75.3187 156.183 75.8469 155.919 76.4766L155.919 84.9469 152.486 84.9469Z" fill="#06041F" fill-rule="nonzero" fill-opacity="1" transform="matrix(1.00481 0 0 1 56 0)"/><path d="M163.617 84.9469 163.617 71.5 166.948 71.5 166.948 73.775C167.213 73.1047 167.72 72.4953 168.492 71.9672 169.325 71.3984 170.32 71.1141 171.336 71.1547 172.128 71.1547 172.738 71.2766 173.184 71.5406L173.184 74.9125 173.062 74.9125C172.412 74.6281 171.722 74.4859 171.011 74.5062 170.117 74.4859 169.244 74.6484 168.431 75.0344 167.802 75.3187 167.294 75.8469 167.03 76.4766L167.03 84.9469 163.617 84.9469Z" fill="#06041F" fill-rule="nonzero" fill-opacity="1" transform="matrix(1.00481 0 0 1 56 0)"/><path d="M186.895 83.3016C185.433 84.6422 183.544 85.3125 181.208 85.3125 178.872 85.3125 176.983 84.6625 175.541 83.3422 174.098 82.0219 173.387 80.3156 173.387 78.2234 173.387 76.1312 174.119 74.425 175.602 73.125 177.064 71.8047 178.973 71.1344 181.289 71.1344 183.686 71.1344 185.575 71.7844 186.977 73.0844 188.378 74.3844 189.089 76.0906 189.069 78.2234 189.089 80.275 188.358 81.9609 186.895 83.3016ZM184.478 75.2578C183.666 74.4859 182.63 74.1 181.269 74.1 179.908 74.1 178.872 74.4859 178.019 75.2578 177.186 76.0094 176.719 77.0859 176.759 78.2031 176.719 79.3406 177.186 80.4172 178.039 81.1688 178.892 81.9203 179.948 82.2859 181.248 82.2859 182.589 82.2859 183.625 81.9 184.458 81.1281 185.27 80.3766 185.717 79.3 185.677 78.2031 185.717 77.1063 185.291 76.0297 184.478 75.2578Z" fill="#06041F" fill-rule="nonzero" fill-opacity="1" transform="matrix(1.00481 0 0 1 56 0)"/><path d="M57.9922 99.2672C52.5687 99.2672 45.6625 95.7531 39.65 89.8422 39.3859 90.5938 39.0609 91.325 38.7156 92.0359 36.6437 96.2609 33.6578 98.5766 30.3266 98.5766 26.9953 98.5766 23.9688 96.3016 21.8562 92.1781 19.9266 88.4203 18.8703 83.3625 18.8703 77.9594 18.8703 69.1641 21.775 61.7297 26.4672 58.5812 29.7172 56.3875 33.8 56.1234 38.2891 57.7891 42.0875 59.1906 46.1906 62.0141 50.2125 65.9953 50.5781 65.0406 51.0047 64.1063 51.5125 63.2125 53.625 59.475 56.5703 57.4234 59.8 57.4234 66.2391 57.4234 71.0938 66.2594 71.0938 77.9797 71.0938 83.0578 70.1594 87.7297 68.4125 91.4875 67.6406 93.1937 66.6047 94.7375 65.3453 96.0984 64.2281 97.3172 62.8266 98.2313 61.2625 98.7797 60.1859 99.125 59.1094 99.2875 57.9922 99.2672ZM40.5031 87.1406C48.0594 95.0625 56.1844 97.825 60.4703 96.4031 62.6641 95.6719 64.675 93.5594 66.1375 90.4313 67.7422 87.0187 68.575 82.7125 68.575 78 68.575 73.0031 67.6203 68.3719 65.8734 64.9594 64.2281 61.7297 62.075 59.9625 59.8 59.9625 56.5297 59.9625 53.6859 63.2328 52.1625 68.0672 58.2562 74.7703 62.2578 82.9969 61.9125 88.2578 61.7906 90.1469 61.1 91.65 59.9219 92.6047L59.8203 92.6859C58.5203 93.5594 56.9969 93.6 55.5141 92.8078 51.6344 90.7359 48.4859 83.2 48.4859 76.0094 48.4859 73.5719 48.7703 71.1344 49.3391 68.7578 41.0922 60.1859 33.1094 57.1797 27.8484 60.7141 23.9078 63.375 21.3687 70.1594 21.3687 78.0203 21.3687 88.1766 25.2891 96.1188 30.3062 96.1188 33.4344 96.1188 36.1359 92.8688 37.6797 87.8516 33.6375 83.3625 30.6109 78.3453 29.1078 73.6937 27.625 69.1437 27.8078 65.4672 29.5547 63.6188 30.6922 62.4203 32.3781 62.1359 34.1656 62.8469 37.8625 64.3297 41.6 69.9359 41.6 77.7562 41.6406 80.9047 41.275 84.0734 40.5031 87.1406ZM51.4516 71.0328C51.1672 72.6578 51.025 74.3234 51.025 75.9891 51.025 82.7938 54.0312 89.1312 56.7125 90.5734 57.525 91 58.0328 90.8375 58.3781 90.6141 58.9875 90.1063 59.3125 89.2531 59.3937 88.075 59.6984 83.8094 56.4078 76.9234 51.4516 71.0328ZM32.3172 64.9391C31.9719 64.9188 31.6266 65.0609 31.4031 65.325 30.5906 66.1578 30.1437 68.6562 31.525 72.8812 32.7844 76.7609 35.2219 80.9656 38.4719 84.8453 38.9188 82.5094 39.1422 80.1125 39.1219 77.7359 39.1219 70.2812 35.5266 66.0766 33.2719 65.1625 32.9672 65.0203 32.6422 64.9594 32.3172 64.9391Z" fill="#06041F" fill-rule="nonzero" fill-opacity="1" transform="matrix(1.00481 0 0 1 56 0)"/></g></g></svg>