<svg width="87" height="76" xmlns="http://www.w3.org/2000/svg" xmlns:xlink="http://www.w3.org/1999/xlink" xml:space="preserve" overflow="hidden"><g transform="translate(-1133 -40)"><g><g><g><g><path d="M55.1583 51.6C51.2 54.2417 45.8167 45.2917 45.8167 36.0167 45.8167 26.7417 50.0333 18.7667 55.8167 18.7667 61.6 18.7667 65.8167 27.4583 65.8167 38.0083 65.8167 48.125 61.9833 55.8583 56.8583 57.5583 51.7333 59.2583 42.7083 55.7833 34.8583 47.1333 26.1583 37.525 23.8333 27.4167 26.6 24.525 29.3667 21.6333 36.4417 27.2083 36.4417 37.7583 36.4417 48.3083 32.425 57.3083 26.4417 57.3083 20.4583 57.3083 16.2917 48.5583 16.2917 38.0083 16.2917 29.675 19.0333 22.6 23.3167 19.7167 29.1917 15.7667 37.9667 18.9917 46.8333 28.45 55.0667 37.225 59.1333 48.3417 55.1583 51.6Z" stroke="#47D7AC" stroke-width="2.5" stroke-linecap="butt" stroke-linejoin="round" stroke-miterlimit="4" stroke-opacity="1" fill="none" fill-rule="nonzero" transform="matrix(1.00781 0 0 1 1134 40)"/></g></g></g></g></g></svg>