<svg width="209" height="156" xmlns="http://www.w3.org/2000/svg" xmlns:xlink="http://www.w3.org/1999/xlink" xml:space="preserve" overflow="hidden"><g transform="translate(-56 0)"><g><g><g><g><path d="M143.775 84.7438 143.775 71.2969 147.106 71.2969 147.106 73.4906C147.614 72.6984 148.366 72.0484 149.219 71.6625 150.234 71.175 151.352 70.9516 152.489 70.9516 155.231 70.9516 156.877 71.9062 157.445 73.8156 157.669 74.5266 157.77 75.5016 157.77 76.7609L157.77 84.7234 154.398 84.7234 154.398 77.5938C154.398 76.5172 154.277 75.7453 154.012 75.3187 153.606 74.5062 152.692 74.1 151.311 74.1 150.498 74.1 149.686 74.3031 148.934 74.6688 148.223 74.9734 147.614 75.4813 147.188 76.1312L147.188 84.7438 143.775 84.7438Z" fill="#FFFFFF" fill-rule="nonzero" fill-opacity="1"/><path d="M172.639 85.1703C170.953 85.1703 169.938 84.6016 169.552 83.4437 168.516 84.6828 166.891 85.3125 164.656 85.3125 162.95 85.3125 161.609 84.9266 160.675 84.1547 159.761 83.4234 159.233 82.3063 159.273 81.1281 159.273 79.1578 160.289 77.8781 162.3 77.2891 163.58 76.9234 165.184 76.7406 167.094 76.7406 167.764 76.7406 168.414 76.8016 169.064 76.9031L169.064 76.4766C169.084 75.9078 168.881 75.3391 168.516 74.9125 168.028 74.4047 167.114 74.1609 165.753 74.1609 163.62 74.1609 161.873 74.6891 160.492 75.7656L160.391 75.7656 160.391 72.7188C162.036 71.6625 164.067 71.1141 166.484 71.1141 168.434 71.1141 169.897 71.4797 170.872 72.2313 171.4 72.6375 171.806 73.1656 172.05 73.7953 172.294 74.425 172.416 75.2578 172.416 76.3344 172.416 76.6594 172.416 77.2484 172.395 78.0812 172.395 78.9141 172.375 79.5031 172.375 79.8484 172.375 80.8438 172.416 81.4328 172.517 81.6359 172.659 82.0219 173.025 82.2047 173.594 82.2047 173.959 82.2047 174.325 82.1641 174.67 82.0422L174.67 84.8047C174.203 85.0484 173.512 85.1703 172.639 85.1703ZM169.084 79.3812C168.434 79.2797 167.784 79.2391 167.134 79.2391 166.18 79.2188 165.245 79.3 164.331 79.5031 163.275 79.7469 162.727 80.2547 162.727 81.0672 162.727 82.1437 163.6 82.6922 165.367 82.6922 167.033 82.6922 168.272 82.2047 169.105 81.2094 169.084 80.8641 169.084 80.2547 169.084 79.3812Z" fill="#FFFFFF" fill-rule="nonzero" fill-opacity="1"/><path d="M176.783 85.8406 176.884 85.8406C178.448 86.9984 180.459 87.5672 182.897 87.5672 184.786 87.5672 186.147 87.1406 186.939 86.2875 187.488 85.7188 187.752 84.7844 187.752 83.4641L187.752 82.4688C187.366 83.0984 186.716 83.6266 185.781 84.0734 184.766 84.5203 183.689 84.7438 182.572 84.7234 180.419 84.7234 178.672 84.175 177.291 83.0781 175.909 81.9813 175.219 80.3766 175.219 78.2641 175.198 77.1266 175.422 75.9891 175.909 74.9531 176.316 74.0594 176.945 73.2875 177.758 72.6984 178.489 72.1703 179.322 71.7641 180.175 71.5 181.028 71.2359 181.902 71.1141 182.795 71.1141 183.872 71.0938 184.928 71.2969 185.944 71.6828 186.878 72.0687 187.508 72.5359 187.812 73.125L187.812 71.5 191.062 71.5 191.062 83.3016C191.062 85.2109 190.717 86.6937 190.006 87.75 188.747 89.5984 186.37 90.5328 182.917 90.5328 181.698 90.5531 180.48 90.4109 179.302 90.1266 178.225 89.8625 177.392 89.5172 176.803 89.1312L176.783 85.8406ZM187.65 76.0906C187.305 75.4203 186.716 74.8719 186.005 74.5672 185.192 74.2016 184.298 74.0187 183.384 74.0187 182.186 73.9781 181.028 74.3438 180.053 75.0547 179.139 75.7453 178.672 76.7812 178.672 78.1625 178.672 79.3609 179.119 80.2547 180.033 80.8641 181.008 81.4938 182.166 81.8187 183.323 81.7984 184.217 81.7984 185.111 81.6156 185.923 81.25 186.634 80.9656 187.223 80.4578 187.63 79.7875L187.65 76.0906Z" fill="#FFFFFF" fill-rule="nonzero" fill-opacity="1"/><path d="M205.931 85.1703C204.245 85.1703 203.23 84.6016 202.844 83.4437 201.828 84.6828 200.203 85.3125 197.969 85.3125 196.262 85.3125 194.922 84.9266 193.988 84.1547 193.073 83.4234 192.545 82.3063 192.586 81.1281 192.586 79.1578 193.602 77.8781 195.613 77.2891 196.892 76.9234 198.497 76.7406 200.406 76.7406 201.077 76.7406 201.727 76.8016 202.377 76.9031L202.377 76.4766C202.397 75.9078 202.214 75.3391 201.828 74.9125 201.341 74.4047 200.427 74.1609 199.066 74.1609 196.933 74.1609 195.186 74.6891 193.825 75.7656L193.703 75.7656 193.703 72.7188C195.348 71.6625 197.38 71.1141 199.797 71.1141 201.747 71.1141 203.209 71.4797 204.184 72.2313 204.713 72.6375 205.119 73.1656 205.363 73.7953 205.606 74.425 205.728 75.2578 205.728 76.3344 205.728 76.6594 205.728 77.2484 205.708 78.0812 205.688 78.9141 205.688 79.5031 205.688 79.8484 205.688 80.8438 205.728 81.4328 205.83 81.6359 205.972 82.0219 206.338 82.2047 206.906 82.2047 207.272 82.2047 207.637 82.1641 207.983 82.0422L207.983 84.8047C207.495 85.0484 206.805 85.1703 205.931 85.1703ZM202.377 79.3812C201.727 79.2797 201.077 79.2391 200.427 79.2391 199.472 79.2188 198.537 79.3 197.623 79.5031 196.567 79.7469 196.019 80.2547 196.019 81.0672 196.019 82.1437 196.892 82.6922 198.659 82.6922 200.325 82.6922 201.564 82.2047 202.397 81.2094 202.377 80.8641 202.377 80.2547 202.377 79.3812Z" fill="#FFFFFF" fill-rule="nonzero" fill-opacity="1"/><path d="M209.486 84.9469 209.486 71.5 212.817 71.5 212.817 73.775C213.061 73.1047 213.589 72.4953 214.361 71.9672 215.194 71.3984 216.189 71.1141 217.205 71.1547 217.997 71.1547 218.606 71.2766 219.053 71.5406L219.053 74.9125 218.952 74.9125C218.302 74.6281 217.611 74.4859 216.9 74.5062 216.006 74.4859 215.133 74.6484 214.32 75.0344 213.691 75.3187 213.183 75.8469 212.919 76.4766L212.919 84.9469 209.486 84.9469Z" fill="#FFFFFF" fill-rule="nonzero" fill-opacity="1"/><path d="M220.617 84.9469 220.617 71.5 223.948 71.5 223.948 73.775C224.213 73.1047 224.72 72.4953 225.492 71.9672 226.325 71.3984 227.32 71.1141 228.336 71.1547 229.128 71.1547 229.738 71.2766 230.184 71.5406L230.184 74.9125 230.062 74.9125C229.412 74.6281 228.722 74.4859 228.011 74.5062 227.117 74.4859 226.244 74.6484 225.431 75.0344 224.802 75.3187 224.294 75.8469 224.03 76.4766L224.03 84.9469 220.617 84.9469Z" fill="#FFFFFF" fill-rule="nonzero" fill-opacity="1"/><path d="M243.895 83.3016C242.433 84.6422 240.544 85.3125 238.208 85.3125 235.872 85.3125 233.983 84.6625 232.541 83.3422 231.098 82.0219 230.387 80.3156 230.387 78.2234 230.387 76.1312 231.119 74.425 232.602 73.125 234.064 71.8047 235.973 71.1344 238.289 71.1344 240.686 71.1344 242.575 71.7844 243.977 73.0844 245.378 74.3844 246.089 76.0906 246.069 78.2234 246.089 80.275 245.358 81.9609 243.895 83.3016ZM241.478 75.2578C240.666 74.4859 239.63 74.1 238.269 74.1 236.908 74.1 235.872 74.4859 235.019 75.2578 234.186 76.0094 233.719 77.0859 233.759 78.2031 233.719 79.3406 234.186 80.4172 235.039 81.1688 235.892 81.9203 236.948 82.2859 238.248 82.2859 239.589 82.2859 240.625 81.9 241.458 81.1281 242.27 80.3766 242.717 79.3 242.677 78.2031 242.717 77.1063 242.291 76.0297 241.478 75.2578Z" fill="#FFFFFF" fill-rule="nonzero" fill-opacity="1"/><path d="M114.992 99.2672C109.569 99.2672 102.662 95.7531 96.65 89.8422 96.3859 90.5938 96.0609 91.325 95.7156 92.0359 93.6437 96.2609 90.6578 98.5766 87.3266 98.5766 83.9953 98.5766 80.9688 96.3016 78.8562 92.1781 76.9266 88.4203 75.8703 83.3625 75.8703 77.9594 75.8703 69.1641 78.775 61.7297 83.4672 58.5812 86.7172 56.3875 90.8 56.1234 95.2891 57.7891 99.0875 59.1906 103.191 62.0141 107.213 65.9953 107.578 65.0406 108.005 64.1063 108.513 63.2125 110.625 59.475 113.57 57.4234 116.8 57.4234 123.239 57.4234 128.094 66.2594 128.094 77.9797 128.094 83.0578 127.159 87.7297 125.412 91.4875 124.641 93.1937 123.605 94.7375 122.345 96.0984 121.228 97.3172 119.827 98.2313 118.263 98.7797 117.186 99.125 116.109 99.2875 114.992 99.2672ZM97.5031 87.1406C105.059 95.0625 113.184 97.825 117.47 96.4031 119.664 95.6719 121.675 93.5594 123.138 90.4313 124.742 87.0187 125.575 82.7125 125.575 78 125.575 73.0031 124.62 68.3719 122.873 64.9594 121.228 61.7297 119.075 59.9625 116.8 59.9625 113.53 59.9625 110.686 63.2328 109.162 68.0672 115.256 74.7703 119.258 82.9969 118.912 88.2578 118.791 90.1469 118.1 91.65 116.922 92.6047L116.82 92.6859C115.52 93.5594 113.997 93.6 112.514 92.8078 108.634 90.7359 105.486 83.2 105.486 76.0094 105.486 73.5719 105.77 71.1344 106.339 68.7578 98.0922 60.1859 90.1094 57.1797 84.8484 60.7141 80.9078 63.375 78.3688 70.1594 78.3688 78.0203 78.3688 88.1766 82.2891 96.1188 87.3063 96.1188 90.4344 96.1188 93.1359 92.8688 94.6797 87.8516 90.6375 83.3625 87.6109 78.3453 86.1078 73.6937 84.625 69.1437 84.8078 65.4672 86.5547 63.6188 87.6922 62.4203 89.3781 62.1359 91.1656 62.8469 94.8625 64.3297 98.6 69.9359 98.6 77.7562 98.6406 80.9047 98.275 84.0734 97.5031 87.1406ZM108.452 71.0328C108.167 72.6578 108.025 74.3234 108.025 75.9891 108.025 82.7938 111.031 89.1312 113.713 90.5734 114.525 91 115.033 90.8375 115.378 90.6141 115.987 90.1063 116.312 89.2531 116.394 88.075 116.698 83.8094 113.408 76.9234 108.452 71.0328ZM89.3172 64.9391C88.9719 64.9188 88.6266 65.0609 88.4031 65.325 87.5906 66.1578 87.1437 68.6562 88.525 72.8812 89.7844 76.7609 92.2219 80.9656 95.4719 84.8453 95.9188 82.5094 96.1422 80.1125 96.1219 77.7359 96.1219 70.2812 92.5266 66.0766 90.2719 65.1625 89.9672 65.0203 89.6422 64.9594 89.3172 64.9391Z" fill="#47D7AC" fill-rule="nonzero" fill-opacity="1"/></g></g></g></g></g></svg>